<svg width="25" height="24" viewBox="0 0 25 24" fill="none" xmlns="http://www.w3.org/2000/svg">
<path d="M22.2724 18.7033C21.9062 19.5418 21.4727 20.3136 20.9704 21.0232C20.2857 21.9906 19.7251 22.6602 19.293 23.032C18.6233 23.6424 17.9057 23.955 17.1373 23.9728C16.5857 23.9728 15.9204 23.8172 15.146 23.5017C14.3691 23.1876 13.6551 23.032 13.0023 23.032C12.3176 23.032 11.5833 23.1876 10.7979 23.5017C10.0112 23.8172 9.37751 23.9816 8.893 23.9979C8.15614 24.0291 7.42168 23.7076 6.68856 23.032C6.22064 22.6276 5.63537 21.9343 4.93424 20.9521C4.18198 19.9033 3.56353 18.687 3.07901 17.3004C2.56012 15.8026 2.3 14.3523 2.3 12.9482C2.3 11.3398 2.65071 9.95259 3.35319 8.79011C3.90527 7.85636 4.63974 7.11979 5.55898 6.57906C6.47822 6.03834 7.47146 5.76279 8.54109 5.74516C9.12636 5.74516 9.89387 5.92456 10.8476 6.27715C11.7987 6.63091 12.4094 6.81032 12.6772 6.81032C12.8773 6.81032 13.5557 6.60054 14.7058 6.18233C15.7934 5.79449 16.7113 5.63391 17.4632 5.69716C19.5008 5.86012 21.0316 6.6561 22.0497 8.09013C20.2274 9.18432 19.3259 10.7169 19.3439 12.6829C19.3603 14.2142 19.9209 15.4886 21.0227 16.5004C21.522 16.97 22.0796 17.333 22.7 17.5907C22.5655 17.9774 22.4234 18.3477 22.2724 18.7033ZM17.5993 0.480137C17.5993 1.68041 17.1567 2.8011 16.2747 3.8384C15.2103 5.07155 13.9229 5.78412 12.5268 5.67168C12.509 5.52769 12.4987 5.37614 12.4987 5.21688C12.4987 4.06462 13.0048 2.83147 13.9038 1.82321C14.3525 1.3127 14.9233 0.888228 15.6155 0.549615C16.3061 0.216055 16.9594 0.031589 17.5738 0C17.5918 0.160458 17.5993 0.320926 17.5993 0.480121V0.480137Z" fill="#33384B"/>
</svg>
