<svg width="21" height="16" viewBox="0 0 21 16" fill="none" xmlns="http://www.w3.org/2000/svg">
<path d="M4.082 9.0001L8.47176 13.3899C8.67005 13.5882 8.76792 13.8202 8.76536 14.086C8.76279 14.3518 8.66492 14.5882 8.47176 14.795C8.26494 15.0018 8.02734 15.1087 7.75896 15.1155C7.49061 15.1223 7.25301 15.0223 7.04616 14.8155L1.07436 8.8437C0.833341 8.60267 0.71283 8.32148 0.71283 8.00013C0.71283 7.67877 0.833341 7.39758 1.07436 7.15656L7.04616 1.18476C7.24445 0.986473 7.47992 0.888607 7.75256 0.891162C8.02521 0.89374 8.26494 0.998439 8.47176 1.20526C8.66492 1.41211 8.76492 1.6463 8.77176 1.90783C8.77861 2.16936 8.67861 2.40354 8.47176 2.61036L4.082 7.00016H19.7692C20.053 7.00016 20.2906 7.09588 20.482 7.28733C20.6735 7.47877 20.7692 7.71637 20.7692 8.00013C20.7692 8.28388 20.6735 8.52148 20.482 8.71293C20.2906 8.90437 20.053 9.0001 19.7692 9.0001H4.082Z" fill="#1E1E22"/>
</svg>
